<?xml version="1.0" encoding="UTF-8"?>
<svg id="Layer_1" xmlns="http://www.w3.org/2000/svg" viewBox="0 0 282.5 288.3">
  <defs>
    <style>
      .cls-1 {
        fill: #eacccf;
      }

      .cls-2 {
        fill: #f9c1bc;
      }

      .cls-3 {
        fill: #2b2970;
      }

      .cls-4 {
        fill: #3a3538;
      }

      .cls-5 {
        fill: #29245e;
      }

      .cls-6 {
        fill: #cec6e3;
      }

      .cls-7 {
        fill: #2e2d30;
      }

      .cls-8 {
        fill: #26225d;
      }

      .cls-9 {
        fill: #fffdfd;
      }

      .cls-10 {
        fill: #2a2768;
      }

      .cls-11 {
        fill: #40346d;
      }

      .cls-12 {
        fill: #27235d;
      }

      .cls-13 {
        fill: #507abd;
      }

      .cls-14 {
        fill: #f48a80;
      }

      .cls-15 {
        fill: #e7c9ce;
      }

      .cls-16 {
        fill: #282565;
      }

      .cls-17 {
        fill: #f58a7f;
      }

      .cls-18 {
        fill: #f5afa8;
      }

      .cls-19 {
        fill: #373336;
      }

      .cls-20 {
        fill: #cec6e2;
      }

      .cls-21 {
        fill: #353234;
      }

      .cls-22 {
        fill: #343134;
      }

      .cls-23 {
        fill: #4b56a5;
      }

      .cls-24 {
        fill: #41356e;
      }
    </style>
  </defs>
  <path class="cls-13" d="M210.1,268.8c-7.8,4.7-16,8.8-24.9,11.9-14.6,5.1-29.6,7.6-45.3,7.6-18,0-35.1-3.4-51.2-10.4-5.8-2.6-11.3-5.7-17-8.5-.6-.4-1.2-.7-1.8-1.1,0,0,0,0,0,0-.6-.3-1.2-.7-1.8-1,0,0,0,0,0,0-.3-.3-.5-.6-.8-.9.2-.3.7-.7.7-1,0-4.2,0-8.5,0-12.7,0-.4-.4-.8-.7-1.2h-1v14.3c-.2,0-.4,0-.5,0-.2-.2-.4-.3-.6-.5-.8-.7-1.6-1.5-2.4-2.2-8.7-6.3-16.4-13.4-22.8-21.8-.6-.8-.8-2.1-.5-3,1.6-4.1,3.3-8.2,5.3-12.1,7.6-14.6,18.2-27.1,33.2-36.1,3.3-2,5.9-4,6.1-7.7,0-1,0-2.2-.7-2.9-8.6-10-7.7-20.5,2.9-28.9,6.3-5,13.8-7.8,21.8-9.9,4.1,5.4,7.5,11.2,12.4,15.9,3.6,3.5,5.1,6.5,3.2,10.8-4.6,1.5-9.1,3.1-13.7,4.6-2,.7-4,1.3-6,1.9v-.9c5.7,3.2,11.3,6.4,16.9,9.6h0c.5.2,1,.4,1.5.6,1.1.9,2.1,1.9,3.2,2.8l.7,1.3h0c.2.1.4.3.6.5,0,0,0,0,0,0,0,.2,0,.4.1.6,2.9,3.8,5.8,7.5,8.6,11.3,1.4,1.9,2.7,3.9,4,5.9,2.1.3,3-.8,4-2.4,3.3-4.8,6.9-9.5,10.5-14.2,1.4-1.8,2.9-3.5,4.4-5.3,1.3-1.1,2.5-2.1,3.8-3.2.7-.5,1.5-1.1,2.2-1.6h0c2.9-1.2,5.8-2.5,9.3-4-3.1-1.6-5.4-2.8-7.8-4,.1-1.1.2-2.2.4-3.3,6.1-3.2,12.3-6.1,18.1-9.7,3.4-2.1,6.1-5,9.1-7.6.9.9,1.9,1.8,2.8,2.7,6.3,6.1,8.1,14.3,3.5,21.4-2.7,4.2-3.8,7.9-1.7,12.2.5,1.1,1.2,2.2,2.2,2.9,4.8,3.5,10.1,6.5,14.6,10.2,11.6,9.7,19.2,21.7,24.8,34.8,1.6,3.8,2,6.9-1.6,9.7-1.1.9-1.9,2.2-3,3.2-5.3,5-10.7,10-16.1,15,0,0,0,0,0,0-.9.5-1.8,1-2.6,1.5,0-3.4-.1-6.9-.3-10.3,0-.8-.4-1.6-.8-3.1-.7,1.2-1.2,1.6-1.2,2,0,3.9,0,7.8,0,11.7,0,.3.7.7,1,1,0,.2,0,.3,0,.4-.6.4-1.2.7-1.8,1.1,0,0,0,0,0,0-.6.4-1.1.7-1.7,1.1,0,0,0,0,0,0-.6.4-1.1.7-1.7,1.1ZM130.6,203.4c-.9,0-1.9.2-2.8.1-7.6-1.1-15.2-2.3-22.9-3.5-1.1-.2-2.3-.2-3.4-.3,0,.2,0,.5,0,.7,10.3,1.5,20.5,3.1,30.8,4.6,2.8,3.2,3.6,7.1,2.6,10.8-1.1,4.3-3.2,8.5-4.8,12.7-5.2,13.5-4.5,27.3-3.2,41.2,0,.4.6.8,1,1.2.7-.9.8-1.6.8-2.3-.2-6.3-.7-12.7-.6-19,0-7.4,1.1-14.7,4.3-21.6,1.3-2.8,2.7-5.5,3.7-8.4,3-9-.9-17.9-9.2-21.8-.8,1.3-.8,2.1.9,2.9,1.2.5,2,1.7,3,2.5ZM155.2,270.8c.4,0,.8,0,1.2,0,0-1.4.2-2.8,0-4.2-1.2-7.9-4.9-14.9-10.5-20.8-6.2-6.5-6.9-13.5-4.6-21.2,2.6-9,7.9-16.8,13.8-24.3.4-.5.6-1.3.7-2,0-.2-1-.7-1.1-.6-.6.5-1.1,1.1-1.5,1.7-.4.6-.7,1.2-1.1,1.8-5.2,7-9.8,14.2-12.4,22.4-2.7,8.5-1.9,16.2,4.6,23.2,6,6.4,9.7,13.9,10.6,22.4,0,.6.2,1.1.3,1.7ZM189.1,196.8c-4.3,1.2-8.5,2.3-12.7,3.5,2.3.8,10.3-1.3,12.7-3.5Z"/>
  <path class="cls-7" d="M220.8,86.5c-.6,11.8-4.1,23-8.6,34-1.6-.3-3-.6-4.3-.9-1.2-1.2-2.7-2.3-3.4-3.8-2.9-6.3-5.8-12.6-8.1-19-1.7-4.7-2.5-9.6-3.7-14.5-22.1,4.2-42.5-.3-62.3-9.3-.8,1.2-1.5,2.4-2.2,3.6-4.9,7.1-9.6,14.4-14.7,21.4-1.9,2.6-4.4,5.2-8.5,5.3-.5-.9-1.4-1.8-1.3-2.7.3-11.9,1.3-23.6,5.7-35,.1-.3.1-.7.2-1,0,0,0,0,0,0,.1-.2.3-.3.4-.5,2.2-3.9,4.4-7.8,9.7-9,.4,0,.7-.6.9-.9,3.9-6.4,10.5-9.4,18.1-11,8.2-1.7,15.8-4.5,23.1-8.4,7.8-4.2,18.2-3.3,22.8,6.9.2.4.3.8.5,1.2,7.3-7.3,13.7-6.7,19.5-4.3,5,2.1,5.9,4.8,4.6,12.4,1.8-1,3.5-2.3,5.4-3,3.7-1.4,7.2-.7,10.1,1.8,3,2.6,2.2,5.9,1.3,9-1.6,5.2-5.4,9.1-9.9,12.7,4.1,4.4,4.6,9.6,4.7,15Z"/>
  <path class="cls-10" d="M215.4,265.2c-.4-.3-1-.7-1-1,0-3.9,0-7.8,0-11.7,0-.4.5-.8,1.2-2,.4,1.5.8,2.3.8,3.1.2,3.4.2,6.9.3,10.3-.3.4-.6.8-.9,1.2-.1,0-.3,0-.4,0Z"/>
  <path class="cls-6" d="M67.6,266.3c.3.3.5.6.8.9-.8-.5-1.6-1.1-2.3-1.6.2,0,.4,0,.5,0,.3.2.7.5,1,.7Z"/>
  <path class="cls-20" d="M213.6,266.7c.6-.4,1.2-.7,1.8-1.1-.6.4-1.2.7-1.8,1.1Z"/>
  <path class="cls-20" d="M211.8,267.8c.6-.4,1.1-.7,1.7-1.1-.6.4-1.1.7-1.7,1.1Z"/>
  <path class="cls-6" d="M68.3,267.2c.6.3,1.2.7,1.8,1-.6-.3-1.2-.7-1.8-1Z"/>
  <path class="cls-20" d="M210.1,268.8c.6-.4,1.1-.7,1.7-1.1-.6.4-1.1.7-1.7,1.1Z"/>
  <path class="cls-6" d="M70.1,268.3c.6.4,1.2.7,1.8,1.1-.6-.4-1.2-.7-1.8-1.1Z"/>
  <path class="cls-6" d="M110,64c-.1.2-.3.3-.4.5.1-.2.3-.3.4-.5Z"/>
  <path class="cls-2" d="M104.9,103.2c4.1-.2,6.5-2.7,8.5-5.3,5.1-7,9.8-14.2,14.7-21.4.8-1.2,1.5-2.4,2.2-3.6,19.8,9,40.2,13.5,62.3,9.3,1.2,5,2,9.9,3.7,14.5,2.3,6.5,5.2,12.8,8.1,19,.7,1.4,2.2,2.5,3.4,3.8,0,.6,0,1.3,0,1.9-1,3.4-2,6.8-3,10.2-.7,2.4-1.5,4.7-2.3,7.1-.4.2-.9.3-1.1.6-2.6,3.7-5.1,7.3-7.7,11-3,2.6-5.7,5.6-9.1,7.6-5.8,3.5-12,6.5-18.1,9.7-10,2.8-20.1,2.6-30.1-.5.1.5.2.8.5.9.7.5,1.4.9,2.2,1.3,7.8,4.3,16.2,7.4,25.1,9.6-.6.5-1.2,1.1-1.7,1.6-1.3,1.1-2.5,2.1-3.8,3.2-1.6,1.4-3.5,2.5-4.8,4.1-4.1,5.3-8,10.8-11.9,16.2-.6.8-.9,1.8-2.2.9-3-6.1-6.8-11.8-11.9-16.6-.3-.2-.6-.4-.9-.5,0,0,0,0,0,0-.2-.2-.4-.4-.6-.6,0,0,0,0,0,0-.2-.4-.4-.9-.7-1.3-1.1-.9-2.1-1.9-3.2-2.8-.5-.2-1-.4-1.5-.6,0,0,0,0,0,0,.9-5,1.8-10.1,2.8-15.1,1.8-4.3.4-7.3-3.2-10.8-4.9-4.7-8.3-10.6-12.4-15.9-1.8-6-3.5-12.1-5.3-18.1.4-5.9.8-11.9,1.2-17.8.2-.5.4-1.1.6-1.6ZM132.8,134.6c0,1.4,0,2.5,0,3.6,0,8.7,6.7,15.2,17.6,16.1,7.4.6,15.7-3.7,18.6-11.6.7-1.8,0-2.4-1.7-2.7-2.2-.3-4.4-.6-6.6-.9-9.2-1.5-18.4-2.9-28-4.5ZM159.7,119h-.1c0-1.4.5-3-.1-4.1-.7-1.2-2.6-2.7-3.8-2.5-1.6.2-3.6,1.5-4.2,2.8-1.5,3.3-2.5,6.9-3.3,10.4-.7,2.8,1.5,5.4,4.4,5.8,3.4.5,6.1-1.3,6.5-4.5.4-2.7.5-5.3.8-8ZM141.4,100.5c.6-.5,2.1-1.1,2.5-2.1.7-1.6-.5-2.8-2.5-3.1-3.2-.5-6.4-1-9.6-1.5-1.9-.3-3.6.4-3.5,2.1,0,1,1.4,2.5,2.5,2.8,3.1.8,6.4,1.1,10.5,1.8ZM174.2,100.3c-.6.6-2,1.2-2.5,2.3-.6,1.5.6,2.7,2.3,3,3.4.6,6.8,1.3,10.2,1.5,1,0,2.8-1.2,3-2,.2-.8-1-2.6-2-2.8-3.3-.9-6.8-1.2-11-1.9ZM182.6,118.3c0-2.4-2.2-4.6-4.9-5.1-2.5-.5-5.6,1.1-6.6,3.3-1,2.3-.4,3.2,2.4,3.4,1.9.1,3.8.4,5.7.8,2.8.6,3.5.2,3.5-2.4ZM139.7,111.7c0-2.6-2.3-4.9-5.4-5.2-2.8-.3-5.4,1.3-6.4,3.8-.9,2.1.3,2.6,2.2,2.8,2.1.2,4.2.5,6.2.9,2.5.5,3.4,0,3.3-2.4Z"/>
  <path class="cls-1" d="M155.2,270.8c-.1-.6-.3-1.1-.3-1.7-.8-8.5-4.5-15.9-10.6-22.4-6.6-7-7.3-14.7-4.6-23.2,2.6-8.2,7.2-15.4,12.4-22.4.4-.6.7-1.2,1.1-1.8.4-.6.9-1.2,1.5-1.7,0,0,1.1.4,1.1.6,0,.7-.2,1.4-.7,2-5.9,7.5-11.2,15.3-13.8,24.3-2.3,7.7-1.6,14.7,4.6,21.2,5.7,5.9,9.3,12.9,10.5,20.8.2,1.4,0,2.8,0,4.2-.4,0-.8,0-1.2,0Z"/>
  <path class="cls-14" d="M164.3,178.9c-8.8-2.2-17.2-5.3-25.1-9.6-.7-.4-1.5-.8-2.2-1.3-.2-.1-.3-.4-.5-.9,10,3.2,20,3.3,30.1.5-.1,1.1-.2,2.2-.4,3.3-.5,2.7-1,5.4-1.5,8,0,0,0,0,0,0-.2,0-.3,0-.5,0Z"/>
  <path class="cls-15" d="M130.6,203.4c-1-.9-1.8-2-3-2.5-1.7-.8-1.7-1.6-.9-2.9,8.4,3.9,12.2,12.8,9.2,21.8-1,2.9-2.4,5.6-3.7,8.4-3.2,6.9-4.2,14.2-4.3,21.6,0,6.3.4,12.7.6,19,0,.7,0,1.4-.8,2.3-.3-.4-.9-.8-1-1.2-1.3-13.9-2-27.7,3.2-41.2,1.6-4.2,3.7-8.4,4.8-12.7,1-3.7.3-7.6-2.6-10.8-.3-.4-.6-.8-.9-1.1-.2-.2-.5-.3-.7-.5h0Z"/>
  <path class="cls-12" d="M124,167.5c-.9,5-1.8,10.1-2.8,15.1-5.6-3.2-11.2-6.4-16.8-9.6v.9c1.9-.6,3.9-1.2,5.9-1.9,4.6-1.5,9.1-3,13.7-4.6Z"/>
  <path class="cls-5" d="M164.8,179c.5-2.7,1-5.4,1.5-8,2.4,1.2,4.8,2.4,7.8,4-3.6,1.5-6.4,2.8-9.3,4Z"/>
  <path class="cls-24" d="M139.9,205c1.3.9,1.6,0,2.2-.9,3.9-5.4,7.8-10.9,11.9-16.2,1.2-1.6,3.2-2.7,4.8-4.1-1.5,1.8-3,3.5-4.4,5.3-3.6,4.7-7.2,9.4-10.5,14.2-1.1,1.5-1.9,2.6-4,2.4,0-.2,0-.4,0-.6Z"/>
  <path class="cls-16" d="M131.3,204c.3.4.6.8.9,1.1-10.3-1.5-20.5-3.1-30.8-4.6,0-.2,0-.5,0-.7,1.1,0,2.3,0,3.4.3,7.6,1.1,15.2,2.3,22.9,3.5.9.1,1.9,0,2.8-.1,0,0,0,0,0,0,.2.2.5.3.7.5Z"/>
  <path class="cls-11" d="M139.9,205c0,.2,0,.4,0,.6-1.3-2-2.6-4-4-5.9-2.8-3.8-5.7-7.5-8.6-11.3.2,0,.5,0,.7,0,5.2,4.9,9,10.5,11.9,16.6Z"/>
  <path class="cls-8" d="M67.6,266.3c-.3-.2-.7-.5-1-.7,0-4.8,0-9.5,0-14.3h1c.2.4.7.8.7,1.2,0,4.2,0,8.5,0,12.7,0,.3-.4.7-.7,1Z"/>
  <path class="cls-3" d="M189.1,196.8c-2.4,2.2-10.4,4.3-12.7,3.5,4.2-1.1,8.4-2.3,12.7-3.5Z"/>
  <path class="cls-5" d="M164.3,178.9c.2,0,.3,0,.5,0-.7.5-1.5,1.1-2.2,1.6.6-.5,1.2-1.1,1.7-1.6Z"/>
  <path class="cls-12" d="M125.8,186c.2.4.4.9.7,1.3-.2-.4-.4-.9-.7-1.3Z"/>
  <path class="cls-12" d="M121.2,182.6c.5.2,1,.4,1.5.6-.5-.2-1-.4-1.5-.6Z"/>
  <path class="cls-12" d="M126.5,187.3c.2.2.4.4.6.6-.2-.2-.4-.4-.6-.6Z"/>
  <path class="cls-12" d="M127.9,188.3c-.2,0-.5,0-.7,0,0-.2,0-.4-.1-.6.3.2.6.4.9.5Z"/>
  <path class="cls-18" d="M104.3,104.8c-.4,5.9-.8,11.9-1.2,17.8-5.8.4-10.5-3.9-10.4-9,.1-5,4.8-9.5,11.5-8.8Z"/>
  <path class="cls-18" d="M202.6,138.7c.8-2.4,1.6-4.7,2.3-7.1,1-3.4,2-6.8,3-10.2,5.5.7,9.1,5.3,8,10.4-1,4.8-6.7,8.2-11.9,7-.5-.1-.9-.1-1.4-.2Z"/>
  <path class="cls-9" d="M132.8,134.6c9.6,1.5,18.8,3,28,4.5,2.2.3,4.4.6,6.6.9,1.7.3,2.4.9,1.7,2.7-2.9,7.9-11.3,12.2-18.6,11.6-10.9-1-17.6-7.4-17.6-16.1,0-1.1,0-2.2,0-3.6Z"/>
  <path class="cls-17" d="M159.7,119c-.2,2.7-.4,5.4-.8,8-.5,3.2-3.2,5-6.5,4.5-2.9-.4-5-3-4.4-5.8.8-3.5,1.8-7.1,3.3-10.4.6-1.3,2.7-2.7,4.2-2.8,1.2-.1,3.1,1.4,3.8,2.5.6,1.1.1,2.7.1,4.1h.1Z"/>
  <path class="cls-21" d="M141.4,100.5c-4.1-.7-7.4-1-10.5-1.8-1.1-.3-2.5-1.8-2.5-2.8,0-1.7,1.6-2.4,3.5-2.1,3.2.5,6.4,1,9.6,1.5,1.9.3,3.1,1.5,2.5,3.1-.4,1-1.9,1.7-2.5,2.1Z"/>
  <path class="cls-22" d="M174.2,100.3c4.3.7,7.7,1.1,11,1.9,1,.2,2.2,2,2,2.8-.2.9-2,2.1-3,2-3.4-.2-6.8-.9-10.2-1.5-1.7-.3-2.9-1.5-2.3-3,.4-1,1.8-1.7,2.5-2.3Z"/>
  <path class="cls-4" d="M182.6,118.3c0,2.6-.7,3-3.5,2.4-1.9-.4-3.8-.6-5.7-.8-2.8-.2-3.4-1-2.4-3.4,1-2.2,4.1-3.8,6.6-3.3,2.7.5,4.9,2.7,4.9,5.1Z"/>
  <path class="cls-19" d="M139.7,111.7c0,2.4-.8,2.9-3.3,2.4-2-.4-4.1-.7-6.2-.9-2-.2-3.1-.7-2.2-2.8,1-2.5,3.5-4.1,6.4-3.8,3,.4,5.3,2.6,5.4,5.2Z"/>
  <path class="cls-23" d="M131.3,204c-.2-.2-.5-.3-.7-.5.2.2.5.3.7.5Z"/>
</svg>