<?xml version="1.0" encoding="UTF-8"?>
<svg id="Layer_1" xmlns="http://www.w3.org/2000/svg" viewBox="0 0 96.4 118.2">
  <defs>
    <style>
      .cls-1 {
        fill: #818cf8;
      }
    </style>
  </defs>
  <path class="cls-1" d="M48.2,0c8.5,0,16.2,3.4,21.7,9,5.6,5.6,9,13.3,9,21.7s-3.4,16.2-9,21.7c-5.6,5.6-13.3,9-21.7,9s-16.2-3.4-21.7-9c-5.6-5.6-9-13.3-9-21.7s3.4-16.2,9-21.7C32,3.5,39.7,0,48.2,0ZM72.3,68.8c-1.1-.7-1.4-2.2-.7-3.3.7-1.1,2.2-1.4,3.3-.7,6.6,4.4,12,10.4,15.8,17.4,3.6,6.8,5.7,14.5,5.7,22.6v10.9c0,1.3-1.1,2.4-2.4,2.4H2.4c-1.3,0-2.4-1.1-2.4-2.4v-10.9c0-8.2,2.1-15.9,5.7-22.7,3.8-7,9.3-13,15.9-17.4,1.1-.7,2.6-.4,3.3.7.7,1.1.4,2.6-.7,3.3-6,4-10.9,9.4-14.4,15.7-3.3,6.1-5.2,13.1-5.2,20.5v8.5h86.8v-8.5c0-7.4-1.9-14.3-5.1-20.4-3.4-6.3-8.3-11.7-14.2-15.7h0ZM66.6,12.4c-4.7-4.7-11.2-7.6-18.4-7.6s-13.7,2.9-18.4,7.6c-4.7,4.7-7.6,11.2-7.6,18.4s2.9,13.7,7.6,18.4,11.2,7.6,18.4,7.6,13.7-2.9,18.4-7.6c4.7-4.7,7.6-11.2,7.6-18.4s-2.9-13.7-7.6-18.4Z"/>
</svg>