<?xml version="1.0" encoding="UTF-8"?>
<svg id="Layer_1" xmlns="http://www.w3.org/2000/svg" viewBox="0 0 800 800">
  <defs>
    <style>
      .cls-1 {
        fill: none;
        stroke: #fff;
        stroke-linecap: round;
        stroke-linejoin: round;
        stroke-width: 50px;
      }
    </style>
  </defs>
  <path class="cls-1" d="M503.15,708.33c.12-19.45.25-86.97.25-113.71,0-38.63-13.2-63.91-28-76.71,91.88-10.27,188.34-45.26,188.34-204.45,0-45.23-15.93-82.23-42.4-111.18,4.24-10.48,18.39-52.63-4.11-109.67,0,0-34.57-11.13-113.34,42.52-32.97-9.22-68.21-13.78-103.27-13.97-35.06.18-70.3,4.75-103.27,13.97-78.77-53.65-113.34-42.52-113.34-42.52-22.5,57.04-8.35,99.18-4.11,109.67-26.46,28.95-42.4,65.95-42.4,111.18,0,159.18,96.45,194.18,188.33,204.45-14.8,12.8-28,38.08-28,76.71,0,26.73.12,94.25.25,113.71M112.5,541.67c41.41,2.93,65.29,40.56,65.29,40.56,36.81,63.33,96.58,45.01,120.06,34.44"/>
</svg>